<svg width="623" height="693" viewBox="0 0 623 693" fill="none" xmlns="http://www.w3.org/2000/svg">
<g filter="url(#filter0_b_1_120)">
<path d="M361.102 692.66C308.871 692.66 260.78 684.331 216.829 667.671C173.515 650.371 135.615 626.344 103.13 595.588C70.6445 564.192 45.4843 527.349 27.6492 485.06C9.81405 442.771 0.896484 396.638 0.896484 346.66C0.896484 296.682 9.81405 250.549 27.6492 208.26C45.4843 165.971 70.6445 129.449 103.13 98.6935C136.252 67.2972 174.789 43.2694 218.74 26.6102C262.691 9.31016 310.782 0.660156 363.013 0.660156C419.703 0.660156 470.661 9.95089 515.886 28.5324C550.62 42.6056 581.153 61.6408 607.484 85.6378C621.764 98.6517 620.742 120.78 606.953 134.313L579.076 161.67C564.732 175.747 541.873 175.341 526.021 162.985C507.7 148.704 488.397 137.526 468.113 129.449C438.176 116.634 405.053 110.227 368.746 110.227C333.713 110.227 301.227 115.994 271.29 127.527C241.352 139.06 215.555 155.399 193.898 176.544C172.241 197.688 155.361 222.677 143.259 251.51C131.794 280.343 126.061 312.06 126.061 346.66C126.061 380.619 131.794 412.016 143.259 440.849C155.361 469.682 172.241 494.992 193.898 516.777C215.555 537.921 241.034 554.26 270.334 565.793C299.635 577.327 332.12 583.094 367.791 583.094C400.913 583.094 432.761 577.968 463.336 567.716C477.686 562.708 491.699 556.21 505.376 548.222V472.484H370.706C368.115 472.484 366.819 472.484 365.725 472.418C347.263 471.31 332.538 456.595 331.429 438.144C331.364 437.05 331.364 435.755 331.364 433.166C331.364 430.576 331.364 429.281 331.429 428.187C332.538 409.737 347.263 395.021 365.725 393.913C366.819 393.847 368.115 393.847 370.706 393.847H564.748C584.874 393.847 594.937 393.847 602.651 397.7C609.732 401.235 615.472 406.973 619.01 414.049C622.611 421.25 622.848 430.5 622.864 448.081C622.885 448.599 622.896 449.12 622.896 449.643V592.53C622.896 595.643 622.896 597.2 622.535 598.738C622.215 600.097 621.605 601.575 620.873 602.763C620.044 604.109 619.031 605.127 617.004 607.164C611.883 612.31 606.532 617.229 600.969 621.902C550.469 655.796 545.365 657.404 500.598 671.516C454.737 685.612 408.238 692.66 361.102 692.66Z" fill="url(#paint0_linear_1_120)"/>
</g>
<defs>
<filter id="filter0_b_1_120" x="-43.6011" y="-43.8375" width="710.995" height="780.995" filterUnits="userSpaceOnUse" color-interpolation-filters="sRGB">
<feFlood flood-opacity="0" result="BackgroundImageFix"/>
<feGaussianBlur in="BackgroundImageFix" stdDeviation="22.2488"/>
<feComposite in2="SourceAlpha" operator="in" result="effect1_backgroundBlur_1_120"/>
<feBlend mode="normal" in="SourceGraphic" in2="effect1_backgroundBlur_1_120" result="shape"/>
</filter>
<linearGradient id="paint0_linear_1_120" x1="909.074" y1="-405.317" x2="139.817" y2="-573.462" gradientUnits="userSpaceOnUse">
<stop stop-color="#32E1F9" stop-opacity="0.5"/>
<stop offset="0.734118" stop-color="#564CEC"/>
</linearGradient>
</defs>
</svg>
