<svg width="168" height="66" viewBox="0 0 168 66" fill="none" xmlns="http://www.w3.org/2000/svg">
<rect x="31.0664" y="3.8291" width="12.9851" height="0.865672" rx="0.432836" fill="url(#paint0_linear_1_122)"/>
<rect x="24.1406" y="6.42627" width="26.8358" height="0.865672" rx="0.432836" fill="url(#paint1_linear_1_122)"/>
<rect x="18.9463" y="9.02295" width="37.2239" height="0.865672" rx="0.432836" fill="url(#paint2_linear_1_122)"/>
<rect x="16.3496" y="11.6201" width="42.4179" height="0.865672" rx="0.432836" fill="url(#paint3_linear_1_122)"/>
<rect x="13.7529" y="14.2173" width="47.6119" height="0.865672" rx="0.432836" fill="url(#paint4_linear_1_122)"/>
<rect x="11.1553" y="16.814" width="52.806" height="0.865672" rx="0.432836" fill="url(#paint5_linear_1_122)"/>
<rect x="9.42383" y="19.4111" width="56.2687" height="0.865672" rx="0.432836" fill="url(#paint6_linear_1_122)"/>
<rect x="8.55859" y="22.0083" width="58" height="0.865672" rx="0.432836" fill="url(#paint7_linear_1_122)"/>
<rect x="7.69238" y="24.605" width="59.7313" height="0.865672" rx="0.432836" fill="url(#paint8_linear_1_122)"/>
<rect x="6.82715" y="27.2021" width="61.4627" height="0.865672" rx="0.432836" fill="url(#paint9_linear_1_122)"/>
<rect x="6.82715" y="29.7993" width="61.4627" height="0.865672" rx="0.432836" fill="url(#paint10_linear_1_122)"/>
<rect x="6.82715" y="34.9932" width="61.4627" height="0.865672" rx="0.432836" fill="url(#paint11_linear_1_122)"/>
<rect x="7.69238" y="37.5903" width="59.7313" height="0.865672" rx="0.432836" fill="url(#paint12_linear_1_122)"/>
<rect x="7.69238" y="40.1875" width="59.7313" height="0.865672" rx="0.432836" fill="url(#paint13_linear_1_122)"/>
<rect x="9.42383" y="42.7842" width="57.1343" height="0.865672" rx="0.432836" fill="url(#paint14_linear_1_122)"/>
<rect x="10.29" y="45.3813" width="54.5373" height="0.865672" rx="0.432836" fill="url(#paint15_linear_1_122)"/>
<rect x="12.8867" y="47.9785" width="51.0746" height="0.865672" rx="0.432836" fill="url(#paint16_linear_1_122)"/>
<rect x="13.7529" y="50.5752" width="48.4776" height="0.865672" rx="0.432836" fill="url(#paint17_linear_1_122)"/>
<rect x="16.3496" y="53.1724" width="43.2836" height="0.865672" rx="0.432836" fill="url(#paint18_linear_1_122)"/>
<rect x="18.9463" y="55.7695" width="37.2239" height="0.865672" rx="0.432836" fill="url(#paint19_linear_1_122)"/>
<rect x="25.0059" y="58.3662" width="24.2388" height="0.865672" rx="0.432836" fill="url(#paint20_linear_1_122)"/>
<rect x="30.2002" y="60.9634" width="14.7164" height="0.865672" rx="0.432836" fill="url(#paint21_linear_1_122)"/>
<rect x="6.82715" y="32.3965" width="61.4627" height="0.865672" rx="0.432836" fill="url(#paint22_linear_1_122)"/>
<path d="M39.9993 51.8249C37.1261 51.8249 34.4806 51.3664 32.0629 50.4494C29.6803 49.4972 27.5955 48.1747 25.8085 46.4818C24.0215 44.7536 22.6374 42.7257 21.6563 40.398C20.6752 38.0703 20.1847 35.531 20.1847 32.7801C20.1847 30.0292 20.6752 27.4899 21.6563 25.1622C22.6374 22.8345 24.0215 20.8242 25.8085 19.1314C27.6305 17.4032 29.7504 16.0807 32.1681 15.1637C34.5858 14.2115 37.2312 13.7354 40.1044 13.7354C43.2229 13.7354 46.026 14.2467 48.5138 15.2695C50.0848 15.9064 51.4995 16.7279 52.758 17.7341C54.047 18.7646 53.9551 20.6679 52.7776 21.8242C51.5528 23.027 49.6078 22.9717 48.1753 22.0257C47.4392 21.5396 46.6761 21.1391 45.8859 20.8242C44.239 20.1189 42.417 19.7662 40.4198 19.7662C38.4926 19.7662 36.7056 20.0836 35.0588 20.7184C33.4119 21.3533 31.9929 22.2526 30.8015 23.4164C29.6102 24.5803 28.6817 25.9557 28.0159 27.5428C27.3852 29.1299 27.0699 30.8756 27.0699 32.7801C27.0699 34.6493 27.3852 36.3775 28.0159 37.9645C28.6817 39.5516 29.6102 40.9447 30.8015 42.1438C31.9929 43.3077 33.3944 44.207 35.0062 44.8418C36.618 45.4766 38.405 45.7941 40.3672 45.7941C42.1892 45.7941 43.9412 45.5119 45.6231 44.9476C47.34 44.3481 48.9693 43.3606 50.511 41.9851L54.4004 47.1166C50.4523 49.7844 50.4523 49.7844 47.6729 50.661C45.15 51.4369 42.5922 51.8249 39.9993 51.8249ZM47.9356 46.2173V39.6703C47.9356 37.8851 49.3828 36.4379 51.168 36.4379C52.9532 36.4379 54.4004 37.8851 54.4004 39.6703V41.7773V47.1166L47.9356 46.2173Z" fill="white"/>
<path d="M38.3634 37.5416C38.3634 36.3464 39.3323 35.3774 40.5276 35.3774H50.0703C52.4607 35.3774 54.3986 37.3153 54.3986 39.7058H40.5276C39.3323 39.7058 38.3634 38.7369 38.3634 37.5416Z" fill="white"/>
<path d="M84.4015 28.5451H86.5203V32.2225C85.9763 32.5938 85.3463 32.8786 84.6305 33.0772C83.9147 33.2757 83.1941 33.375 82.4688 33.375C81.4285 33.375 80.4932 33.1764 79.6628 32.7794C78.8325 32.3736 78.1787 31.8168 77.7015 31.1089C77.2338 30.3924 77 29.5853 77 28.6875C77 27.7897 77.2338 26.9869 77.7015 26.279C78.1787 25.5625 78.8372 25.0057 79.6771 24.6086C80.517 24.2029 81.4619 24 82.5117 24C83.3898 24 84.1867 24.1338 84.9025 24.4014C85.6184 24.669 86.2196 25.0575 86.7064 25.5668L85.2175 26.8099C84.5017 26.1279 83.6379 25.7869 82.6263 25.7869C81.9868 25.7869 81.4189 25.9078 80.9226 26.1495C80.4263 26.3912 80.0398 26.7322 79.763 27.1725C79.4862 27.6127 79.3479 28.1177 79.3479 28.6875C79.3479 29.2486 79.4862 29.7493 79.763 30.1896C80.0398 30.6298 80.4216 30.9751 80.9083 31.2255C81.4046 31.4672 81.9677 31.5881 82.5976 31.5881C83.2657 31.5881 83.867 31.4586 84.4015 31.1996V28.5451Z" fill="#1C1C1C"/>
<path d="M95.2744 31.2773H90.6216L89.734 33.2196H87.3575L91.8242 24.1554H94.1148L98.5958 33.2196H96.162L95.2744 31.2773ZM94.5443 29.6846L92.9552 26.2143L91.3661 29.6846H94.5443Z" fill="#1C1C1C"/>
<path d="M106.02 33.2196L104.088 30.6946H101.955V33.2196H99.6355V24.1554H103.973C104.861 24.1554 105.629 24.2892 106.278 24.5568C106.937 24.8244 107.443 25.2042 107.796 25.6963C108.149 26.1884 108.325 26.7711 108.325 27.4444C108.325 28.1177 108.144 28.7004 107.781 29.1925C107.428 29.6759 106.922 30.0471 106.264 30.3061L108.512 33.2196H106.02ZM105.978 27.4444C105.978 26.9351 105.796 26.5466 105.434 26.279C105.071 26.0028 104.541 25.8646 103.844 25.8646H101.955V29.0242H103.844C104.541 29.0242 105.071 28.886 105.434 28.6098C105.796 28.3336 105.978 27.9451 105.978 27.4444Z" fill="#1C1C1C"/>
<path d="M112.099 25.8646H108.892V24.1554H117.625V25.8646H114.418V33.2196H112.099V25.8646Z" fill="#1C1C1C"/>
<path d="M79.8664 36.9556H77V36.2533H83.595V36.9556H80.7286V43.9342H79.8664V36.9556Z" fill="#1C1C1C"/>
<path d="M90.7401 43.2319V43.9342H84.9724V36.2533H90.5653V36.9556H85.8347V39.6878H90.0526V40.379H85.8347V43.2319H90.7401Z" fill="#1C1C1C"/>
<path d="M96.2635 44C95.4557 44 94.7255 43.8318 94.073 43.4953C93.4283 43.1588 92.9195 42.6943 92.5466 42.1017C92.1815 41.5019 91.999 40.8326 91.999 40.0938C91.999 39.3549 92.1815 38.6893 92.5466 38.0967C92.9195 37.4969 93.4321 37.0287 94.0846 36.6922C94.7371 36.3557 95.4673 36.1875 96.2752 36.1875C96.8811 36.1875 97.4404 36.2826 97.9531 36.4728C98.4657 36.663 98.9007 36.941 99.2581 37.3067L98.7104 37.8224C98.0735 37.2153 97.2695 36.9117 96.2985 36.9117C95.6538 36.9117 95.0673 37.0507 94.5391 37.3287C94.0108 37.6066 93.5953 37.987 93.2923 38.4698C92.9971 38.9526 92.8495 39.4939 92.8495 40.0938C92.8495 40.6936 92.9971 41.2349 93.2923 41.7177C93.5953 42.2005 94.0108 42.5809 94.5391 42.8588C95.0673 43.1368 95.6538 43.2758 96.2985 43.2758C97.2773 43.2758 98.0812 42.9686 98.7104 42.3541L99.2581 42.8698C98.9007 43.2356 98.4619 43.5172 97.9414 43.7147C97.4287 43.9049 96.8694 44 96.2635 44Z" fill="#1C1C1C"/>
<path d="M107.912 36.2533V43.9342H107.062V40.39H101.958V43.9342H101.096V36.2533H101.958V39.6768H107.062V36.2533H107.912Z" fill="#1C1C1C"/>
<path d="M117.391 36.2533V43.9342H116.68L111.437 37.7017V43.9342H110.575V36.2533H111.285L116.54 42.4858V36.2533H117.391Z" fill="#1C1C1C"/>
<path d="M123.619 44C122.811 44 122.077 43.8318 121.416 43.4953C120.764 43.1515 120.251 42.6833 119.878 42.0908C119.513 41.4982 119.331 40.8326 119.331 40.0938C119.331 39.3549 119.513 38.6893 119.878 38.0967C120.251 37.5042 120.764 37.0397 121.416 36.7032C122.077 36.3594 122.811 36.1875 123.619 36.1875C124.427 36.1875 125.153 36.3557 125.798 36.6922C126.45 37.0287 126.963 37.4969 127.336 38.0967C127.708 38.6893 127.895 39.3549 127.895 40.0938C127.895 40.8326 127.708 41.5019 127.336 42.1017C126.963 42.6943 126.45 43.1588 125.798 43.4953C125.153 43.8318 124.427 44 123.619 44ZM123.619 43.2758C124.263 43.2758 124.846 43.1405 125.366 42.8698C125.887 42.5918 126.295 42.2115 126.59 41.7287C126.885 41.2386 127.033 40.6936 127.033 40.0938C127.033 39.4939 126.885 38.9526 126.59 38.4698C126.295 37.9797 125.887 37.5993 125.366 37.3287C124.846 37.0507 124.263 36.9117 123.619 36.9117C122.974 36.9117 122.387 37.0507 121.859 37.3287C121.339 37.5993 120.927 37.9797 120.624 38.4698C120.329 38.9526 120.181 39.4939 120.181 40.0938C120.181 40.6936 120.329 41.2386 120.624 41.7287C120.927 42.2115 121.339 42.5918 121.859 42.8698C122.387 43.1405 122.974 43.2758 123.619 43.2758Z" fill="#1C1C1C"/>
<path d="M129.828 36.2533H130.69V43.2319H135.257V43.9342H129.828V36.2533Z" fill="#1C1C1C"/>
<path d="M140.095 44C139.287 44 138.553 43.8318 137.893 43.4953C137.24 43.1515 136.728 42.6833 136.355 42.0908C135.99 41.4982 135.807 40.8326 135.807 40.0938C135.807 39.3549 135.99 38.6893 136.355 38.0967C136.728 37.5042 137.24 37.0397 137.893 36.7032C138.553 36.3594 139.287 36.1875 140.095 36.1875C140.903 36.1875 141.629 36.3557 142.274 36.6922C142.927 37.0287 143.439 37.4969 143.812 38.0967C144.185 38.6893 144.371 39.3549 144.371 40.0938C144.371 40.8326 144.185 41.5019 143.812 42.1017C143.439 42.6943 142.927 43.1588 142.274 43.4953C141.629 43.8318 140.903 44 140.095 44ZM140.095 43.2758C140.74 43.2758 141.322 43.1405 141.843 42.8698C142.363 42.5918 142.771 42.2115 143.066 41.7287C143.362 41.2386 143.509 40.6936 143.509 40.0938C143.509 39.4939 143.362 38.9526 143.066 38.4698C142.771 37.9797 142.363 37.5993 141.843 37.3287C141.322 37.0507 140.74 36.9117 140.095 36.9117C139.45 36.9117 138.864 37.0507 138.336 37.3287C137.815 37.5993 137.404 37.9797 137.101 38.4698C136.805 38.9526 136.658 39.4939 136.658 40.0938C136.658 40.6936 136.805 41.2386 137.101 41.7287C137.404 42.2115 137.815 42.5918 138.336 42.8698C138.864 43.1405 139.45 43.2758 140.095 43.2758Z" fill="#1C1C1C"/>
<path d="M152.048 40.0938H152.876V43.0234C152.495 43.338 152.045 43.5794 151.524 43.7476C151.004 43.9159 150.456 44 149.881 44C149.066 44 148.331 43.8318 147.679 43.4953C147.026 43.1588 146.514 42.6943 146.141 42.1017C145.768 41.5019 145.582 40.8326 145.582 40.0938C145.582 39.3549 145.768 38.6893 146.141 38.0967C146.514 37.4969 147.026 37.0287 147.679 36.6922C148.331 36.3557 149.069 36.1875 149.893 36.1875C150.514 36.1875 151.085 36.2826 151.606 36.4728C152.126 36.6557 152.565 36.93 152.922 37.2957L152.386 37.8114C151.742 37.2116 150.922 36.9117 149.928 36.9117C149.267 36.9117 148.669 37.0507 148.133 37.3287C147.605 37.5993 147.19 37.9797 146.887 38.4698C146.584 38.9526 146.432 39.4939 146.432 40.0938C146.432 40.6936 146.584 41.2349 146.887 41.7177C147.19 42.2005 147.605 42.5809 148.133 42.8588C148.662 43.1368 149.256 43.2758 149.916 43.2758C150.755 43.2758 151.466 43.0783 152.048 42.6833V40.0938Z" fill="#1C1C1C"/>
<path d="M158.112 41.2788V43.9342H157.262V41.2788L153.999 36.2533H154.92L157.716 40.5656L160.513 36.2533H161.375L158.112 41.2788Z" fill="#1C1C1C"/>
<defs>
<linearGradient id="paint0_linear_1_122" x1="44.9172" y1="2.96343" x2="29.7679" y2="4.26194" gradientUnits="userSpaceOnUse">
<stop offset="0.312243" stop-color="#32E1F9"/>
<stop offset="0.890625" stop-color="#564CEC" stop-opacity="0.5"/>
</linearGradient>
<linearGradient id="paint1_linear_1_122" x1="52.7655" y1="5.5606" x2="22.1866" y2="10.9774" gradientUnits="userSpaceOnUse">
<stop offset="0.312243" stop-color="#32E1F9"/>
<stop offset="0.890625" stop-color="#564CEC" stop-opacity="0.68"/>
</linearGradient>
<linearGradient id="paint2_linear_1_122" x1="58.6518" y1="8.15728" x2="17.3957" y2="18.2945" gradientUnits="userSpaceOnUse">
<stop offset="0.312243" stop-color="#32E1F9"/>
<stop offset="0.890625" stop-color="#564CEC" stop-opacity="0.5"/>
</linearGradient>
<linearGradient id="paint3_linear_1_122" x1="61.5954" y1="10.7544" x2="15.3684" y2="23.698" gradientUnits="userSpaceOnUse">
<stop offset="0.312243" stop-color="#32E1F9"/>
<stop offset="0.890625" stop-color="#564CEC" stop-opacity="0.5"/>
</linearGradient>
<linearGradient id="paint4_linear_1_122" x1="64.539" y1="13.3516" x2="13.6138" y2="29.3567" gradientUnits="userSpaceOnUse">
<stop offset="0.312243" stop-color="#32E1F9"/>
<stop offset="0.890625" stop-color="#564CEC" stop-opacity="0.5"/>
</linearGradient>
<linearGradient id="paint5_linear_1_122" x1="67.4816" y1="15.9483" x2="12.1455" y2="35.2369" gradientUnits="userSpaceOnUse">
<stop offset="0.312243" stop-color="#32E1F9"/>
<stop offset="0.890625" stop-color="#564CEC" stop-opacity="0.5"/>
</linearGradient>
<linearGradient id="paint6_linear_1_122" x1="69.4437" y1="18.5455" x2="11.3317" y2="40.1299" gradientUnits="userSpaceOnUse">
<stop offset="0.312243" stop-color="#32E1F9"/>
<stop offset="0.890625" stop-color="#564CEC" stop-opacity="0.5"/>
</linearGradient>
<linearGradient id="paint7_linear_1_122" x1="70.4253" y1="21.1426" x2="10.9755" y2="43.9034" gradientUnits="userSpaceOnUse">
<stop offset="0.312243" stop-color="#32E1F9"/>
<stop offset="0.890625" stop-color="#564CEC" stop-opacity="0.5"/>
</linearGradient>
<linearGradient id="paint8_linear_1_122" x1="71.4058" y1="23.7393" x2="10.6521" y2="47.6936" gradientUnits="userSpaceOnUse">
<stop offset="0.312243" stop-color="#32E1F9"/>
<stop offset="0.890625" stop-color="#564CEC" stop-opacity="0.5"/>
</linearGradient>
<linearGradient id="paint9_linear_1_122" x1="72.3873" y1="26.3365" x2="10.3634" y2="51.5004" gradientUnits="userSpaceOnUse">
<stop offset="0.312243" stop-color="#32E1F9"/>
<stop offset="0.890625" stop-color="#564CEC" stop-opacity="0.5"/>
</linearGradient>
<linearGradient id="paint10_linear_1_122" x1="72.3873" y1="28.9336" x2="10.3634" y2="54.0976" gradientUnits="userSpaceOnUse">
<stop offset="0.312243" stop-color="#32E1F9"/>
<stop offset="0.890625" stop-color="#564CEC" stop-opacity="0.5"/>
</linearGradient>
<linearGradient id="paint11_linear_1_122" x1="72.3873" y1="34.1275" x2="10.3634" y2="59.2915" gradientUnits="userSpaceOnUse">
<stop stop-color="#32E1F9" stop-opacity="0.5"/>
<stop offset="0.734118" stop-color="#564CEC"/>
</linearGradient>
<linearGradient id="paint12_linear_1_122" x1="71.4058" y1="36.7247" x2="10.6521" y2="60.679" gradientUnits="userSpaceOnUse">
<stop stop-color="#32E1F9" stop-opacity="0.5"/>
<stop offset="0.734118" stop-color="#564CEC"/>
</linearGradient>
<linearGradient id="paint13_linear_1_122" x1="71.4058" y1="39.3218" x2="10.6521" y2="63.2761" gradientUnits="userSpaceOnUse">
<stop stop-color="#32E1F9" stop-opacity="0.5"/>
<stop offset="0.734118" stop-color="#564CEC"/>
</linearGradient>
<linearGradient id="paint14_linear_1_122" x1="70.3671" y1="41.9185" x2="11.582" y2="64.0888" gradientUnits="userSpaceOnUse">
<stop stop-color="#32E1F9" stop-opacity="0.5"/>
<stop offset="0.734118" stop-color="#564CEC"/>
</linearGradient>
<linearGradient id="paint15_linear_1_122" x1="68.4632" y1="44.5157" x2="11.7224" y2="64.9423" gradientUnits="userSpaceOnUse">
<stop stop-color="#32E1F9" stop-opacity="0.5"/>
<stop offset="0.734118" stop-color="#564CEC"/>
</linearGradient>
<linearGradient id="paint16_linear_1_122" x1="67.3663" y1="47.1128" x2="13.4678" y2="65.2843" gradientUnits="userSpaceOnUse">
<stop stop-color="#32E1F9" stop-opacity="0.5"/>
<stop offset="0.734118" stop-color="#564CEC"/>
</linearGradient>
<linearGradient id="paint17_linear_1_122" x1="65.4624" y1="49.7095" x2="13.7817" y2="66.2473" gradientUnits="userSpaceOnUse">
<stop stop-color="#32E1F9" stop-opacity="0.5"/>
<stop offset="0.734118" stop-color="#564CEC"/>
</linearGradient>
<linearGradient id="paint18_linear_1_122" x1="62.5188" y1="52.3067" x2="15.4894" y2="65.7436" gradientUnits="userSpaceOnUse">
<stop stop-color="#32E1F9" stop-opacity="0.5"/>
<stop offset="0.734118" stop-color="#564CEC"/>
</linearGradient>
<linearGradient id="paint19_linear_1_122" x1="58.6518" y1="54.9039" x2="17.3957" y2="65.0411" gradientUnits="userSpaceOnUse">
<stop stop-color="#32E1F9" stop-opacity="0.5"/>
<stop offset="0.734118" stop-color="#564CEC"/>
</linearGradient>
<linearGradient id="paint20_linear_1_122" x1="50.8606" y1="57.5005" x2="23.0853" y2="61.9446" gradientUnits="userSpaceOnUse">
<stop stop-color="#32E1F9" stop-opacity="0.5"/>
<stop offset="0.734118" stop-color="#564CEC"/>
</linearGradient>
<linearGradient id="paint21_linear_1_122" x1="45.8977" y1="60.0977" x2="28.7641" y2="61.7621" gradientUnits="userSpaceOnUse">
<stop stop-color="#32E1F9" stop-opacity="0.5"/>
<stop offset="0.734118" stop-color="#564CEC"/>
</linearGradient>
<linearGradient id="paint22_linear_1_122" x1="72.3873" y1="31.5308" x2="10.3634" y2="56.6948" gradientUnits="userSpaceOnUse">
<stop stop-color="#32E1F9" stop-opacity="0.5"/>
<stop offset="0.734118" stop-color="#564CEC"/>
</linearGradient>
</defs>
</svg>
