<svg width="216" height="216" viewBox="0 0 216 216" fill="none" xmlns="http://www.w3.org/2000/svg">
<g opacity="0.8" clip-path="url(#clip0_2234_9590)">
<path d="M34.0829 154.335C35.2502 155.232 35.4507 156.783 34.5507 157.954C33.6506 159.126 32.1002 159.331 30.9329 158.434C29.7656 157.537 29.5651 155.986 30.4652 154.815C31.3652 153.644 33.0129 153.513 34.0829 154.335Z" fill="#FFCF2D"/>
<path d="M47.5082 136.864C48.6755 137.761 48.876 139.312 47.9759 140.484C47.0759 141.655 45.5255 141.86 44.3582 140.963C43.1909 140.066 42.9904 138.515 43.8905 137.344C44.7155 136.27 46.4382 136.042 47.5082 136.864Z" fill="#FFCF2D"/>
<path d="M60.8583 119.492C62.0256 120.389 62.2261 121.94 61.326 123.112C60.426 124.283 58.8756 124.488 57.7083 123.591C56.541 122.694 56.3405 121.143 57.2406 119.972C58.1406 118.801 59.7883 118.67 60.8583 119.492Z" fill="#FFCF2D"/>
<path d="M74.2836 102.022C75.4509 102.92 75.6514 104.471 74.7513 105.642C73.8513 106.813 72.3008 107.019 71.1336 106.122C69.9663 105.225 69.7658 103.673 70.6659 102.502C71.5659 101.331 73.2136 101.2 74.2836 102.022Z" fill="#FFCF2D"/>
<path d="M87.7089 84.5528C88.8762 85.4498 89.0766 87.001 88.1766 88.1721C87.2766 89.3433 85.7261 89.5489 84.5589 88.6518C83.3916 87.7548 83.1911 86.2037 84.0911 85.0325C84.9162 83.9589 86.6389 83.7305 87.7089 84.5528Z" fill="#FFCF2D"/>
<path d="M101.134 67.0831C102.301 67.9801 102.502 69.5312 101.602 70.7024C100.702 71.8736 99.1514 72.0792 97.9841 71.1821C96.8169 70.2851 96.6164 68.7339 97.5164 67.5628C98.4165 66.3916 100.064 66.2608 101.134 67.0831Z" fill="#FFCF2D"/>
<path d="M114.484 49.711C115.652 50.608 115.852 52.1592 114.952 53.3303C114.052 54.5015 112.502 54.7071 111.334 53.81C110.167 52.913 109.967 51.3619 110.867 50.1907C111.767 49.0195 113.414 48.8887 114.484 49.711Z" fill="#FFCF2D"/>
<path d="M127.91 32.2413C129.077 33.1383 129.277 34.6894 128.377 35.8606C127.477 37.0318 125.927 37.2374 124.76 36.3403C123.592 35.4433 123.392 33.8921 124.292 32.721C125.192 31.5498 126.84 31.419 127.91 32.2413Z" fill="#FFCF2D"/>
<path d="M141.335 14.7715C142.502 15.6686 142.703 17.2197 141.803 18.3909C140.903 19.562 139.352 19.7676 138.185 18.8706C137.018 17.9736 136.817 16.4224 137.717 15.2513C138.542 14.1777 140.265 13.9493 141.335 14.7715Z" fill="#FFCF2D"/>
<path d="M48.5766 165.473C49.7439 166.37 49.9443 167.921 49.0443 169.092C48.1443 170.263 46.5938 170.469 45.4265 169.572C44.2593 168.675 44.0588 167.124 44.9588 165.952C45.8588 164.781 47.4093 164.576 48.5766 165.473Z" fill="#FFCF2D"/>
<path d="M62.0019 148.003C63.1692 148.9 63.3696 150.451 62.4696 151.622C61.5696 152.793 60.0191 152.999 58.8518 152.102C57.6845 151.205 57.4841 149.654 58.3841 148.483C59.2091 147.409 60.8346 147.106 62.0019 148.003Z" fill="#FFCF2D"/>
<path d="M75.352 130.631C76.5193 131.528 76.7197 133.079 75.8197 134.25C74.9197 135.421 73.3692 135.627 72.2019 134.73C71.0346 133.833 70.8342 132.282 71.7342 131.111C72.6342 129.939 74.1847 129.734 75.352 130.631Z" fill="#FFCF2D"/>
<path d="M88.7773 113.161C89.9446 114.058 90.145 115.609 89.245 116.781C88.345 117.952 86.7945 118.157 85.6272 117.26C84.4599 116.363 84.2595 114.812 85.1595 113.641C86.0595 112.47 87.61 112.264 88.7773 113.161Z" fill="#FFCF2D"/>
<path d="M102.203 95.6905C103.37 96.5875 103.57 98.1387 102.67 99.3098C101.77 100.481 100.22 100.687 99.0525 99.7895C97.8852 98.8925 97.6848 97.3414 98.5848 96.1702C99.4098 95.0966 101.035 94.7934 102.203 95.6905Z" fill="#FFCF2D"/>
<path d="M115.628 78.2208C116.795 79.1178 116.996 80.6689 116.096 81.8401C115.196 83.0113 113.645 83.2169 112.478 82.3198C111.311 81.4228 111.11 79.8716 112.01 78.7005C112.91 77.5293 114.461 77.3237 115.628 78.2208Z" fill="#FFCF2D"/>
<path d="M128.978 60.8487C130.145 61.7457 130.346 63.2969 129.446 64.468C128.546 65.6392 126.995 65.8448 125.828 64.9477C124.661 64.0507 124.46 62.4996 125.36 61.3284C126.26 60.1572 127.811 59.9517 128.978 60.8487Z" fill="#FFCF2D"/>
<path d="M142.403 43.3789C143.571 44.276 143.771 45.8271 142.871 46.9983C141.971 48.1695 140.42 48.3751 139.253 47.478C138.086 46.581 137.885 45.0298 138.785 43.8587C139.685 42.6875 141.236 42.4819 142.403 43.3789Z" fill="#FFCF2D"/>
<path d="M155.829 25.9092C156.996 26.8063 157.196 28.3574 156.296 29.5286C155.396 30.6997 153.846 30.9053 152.678 30.0083C151.511 29.1113 151.311 27.5601 152.211 26.3889C153.036 25.3154 154.661 25.0122 155.829 25.9092Z" fill="#FFCF2D"/>
<path d="M5.1928 132.133C6.36008 133.03 6.56053 134.581 5.66052 135.752C4.7605 136.923 3.21003 137.129 2.04275 136.232C0.875462 135.335 0.675012 133.784 1.57503 132.613C2.47504 131.441 4.02552 131.236 5.1928 132.133Z" fill="#FFCF2D"/>
<path d="M18.6181 114.663C19.7854 115.56 19.9858 117.111 19.0858 118.282C18.1858 119.454 16.6353 119.659 15.468 118.762C14.3008 117.865 14.1003 116.314 15.0003 115.143C15.8253 114.069 17.4508 113.766 18.6181 114.663Z" fill="#FFCF2D"/>
<path d="M31.9682 97.2911C33.1355 98.1881 33.3359 99.7392 32.4359 100.91C31.5359 102.082 29.9854 102.287 28.8181 101.39C27.6509 100.493 27.5254 98.8443 28.3504 97.7708C29.2504 96.5996 30.8009 96.394 31.9682 97.2911Z" fill="#FFCF2D"/>
<path d="M45.3935 79.8213C46.5608 80.7184 46.7612 82.2695 45.8612 83.4407C44.9612 84.6118 43.4107 84.8174 42.2434 83.9204C41.0761 83.0234 40.9507 81.3746 41.7757 80.3011C42.6007 79.2275 44.2262 78.9243 45.3935 79.8213Z" fill="#FFCF2D"/>
<path d="M58.8188 62.3516C59.9861 63.2486 60.1865 64.7998 59.2865 65.971C58.3865 67.1421 56.836 67.3477 55.6687 66.4507C54.5014 65.5536 54.301 64.0025 55.201 62.8313C56.026 61.7578 57.6515 61.4546 58.8188 62.3516Z" fill="#FFCF2D"/>
<path d="M72.2441 44.8809C73.4114 45.7779 73.6118 47.3291 72.7118 48.5002C71.8118 49.6714 70.2613 49.877 69.094 48.98C67.9267 48.0829 67.7263 46.5318 68.6263 45.3606C69.5263 44.1895 71.0768 43.9839 72.2441 44.8809Z" fill="#FFCF2D"/>
<path d="M85.5942 27.5088C86.7614 28.4059 86.9619 29.957 86.0619 31.1282C85.1619 32.2993 83.6114 32.5049 82.4441 31.6079C81.2768 30.7109 81.0764 29.1597 81.9764 27.9886C82.8764 26.8174 84.4269 26.6118 85.5942 27.5088Z" fill="#FFCF2D"/>
<path d="M99.0195 10.0391C100.187 10.9361 100.387 12.4873 99.4872 13.6585C98.5872 14.8296 97.0367 15.0352 95.8694 14.1382C94.7021 13.2411 94.5017 11.69 95.4017 10.5188C96.3017 9.34767 97.8522 9.14207 99.0195 10.0391Z" fill="#FFCF2D"/>
<path d="M19.6865 143.272C20.8537 144.169 21.0542 145.72 20.1542 146.891C19.2542 148.062 17.6064 148.193 16.5364 147.371C15.3691 146.474 15.1687 144.922 16.0687 143.751C16.9687 142.58 18.5192 142.374 19.6865 143.272Z" fill="#FFCF2D"/>
<path d="M33.1117 125.801C34.279 126.698 34.4795 128.249 33.5795 129.42C32.6794 130.591 31.129 130.797 29.9617 129.9C28.7944 129.003 28.594 127.452 29.494 126.281C30.319 125.207 31.9445 124.904 33.1117 125.801Z" fill="#FFCF2D"/>
<path d="M46.4618 108.429C47.6291 109.326 47.8296 110.877 46.9296 112.048C46.0295 113.219 44.4791 113.425 43.3118 112.528C42.1445 111.631 41.9441 110.08 42.8441 108.908C43.7441 107.737 45.2946 107.532 46.4618 108.429Z" fill="#FFCF2D"/>
<path d="M59.8871 90.959C61.0544 91.8561 61.2549 93.4072 60.3549 94.5784C59.4548 95.7495 57.9044 95.9551 56.7371 95.0581C55.5698 94.1611 55.3693 92.6099 56.2694 91.4387C57.1694 90.2676 58.7199 90.062 59.8871 90.959Z" fill="#FFCF2D"/>
<path d="M73.3124 73.4893C74.4797 74.3863 74.6802 75.9375 73.7801 77.1086C72.8801 78.2798 71.3297 78.4854 70.1624 77.5884C68.9951 76.6913 68.7946 75.1402 69.6947 73.969C70.5197 72.8955 72.1451 72.5923 73.3124 73.4893Z" fill="#FFCF2D"/>
<path d="M86.7377 56.0196C87.905 56.9166 88.1055 58.4678 87.2054 59.6389C86.3054 60.8101 84.7549 61.0157 83.5877 60.1186C82.4204 59.2216 82.2199 57.6705 83.1199 56.4993C84.02 55.3281 85.5704 55.1225 86.7377 56.0196Z" fill="#FFCF2D"/>
<path d="M100.088 38.6475C101.255 39.5445 101.456 41.0957 100.556 42.2669C99.6555 43.438 98.105 43.6436 96.9378 42.7466C95.7705 41.8495 95.57 40.2984 96.47 39.1272C97.3701 37.9561 98.9205 37.7505 100.088 38.6475Z" fill="#FFCF2D"/>
<path d="M113.513 21.1778C114.68 22.0748 114.881 23.626 113.981 24.7971C113.081 25.9683 111.53 26.1739 110.363 25.2768C109.196 24.3798 108.995 22.8287 109.895 21.6575C110.795 20.4863 112.346 20.2807 113.513 21.1778Z" fill="#FFCF2D"/>
<path d="M126.938 3.70806C128.106 4.6051 128.306 6.15623 127.406 7.32739C126.506 8.49855 124.956 8.70415 123.788 7.80712C122.621 6.91008 122.421 5.35893 123.321 4.18777C124.146 3.11421 125.771 2.81102 126.938 3.70806Z" fill="#FFCF2D"/>
<path d="M62.9736 176.536C64.1408 177.433 64.3413 178.984 63.4413 180.156C62.5413 181.327 60.9908 181.532 59.8235 180.635C58.6562 179.738 58.4558 178.187 59.3558 177.016C60.2558 175.845 61.9036 175.714 62.9736 176.536Z" fill="#FFCF2D"/>
<path d="M76.3989 159.066C77.5661 159.963 77.7666 161.515 76.8666 162.686C75.9665 163.857 74.4161 164.063 73.2488 163.166C72.0815 162.268 71.8811 160.717 72.7811 159.546C73.6061 158.473 75.3288 158.244 76.3989 159.066Z" fill="#FFCF2D"/>
<path d="M89.749 141.694C90.9162 142.591 91.1167 144.143 90.2167 145.314C89.3167 146.485 87.7662 146.69 86.5989 145.793C85.4316 144.896 85.2312 143.345 86.1312 142.174C87.0312 141.003 88.6789 140.872 89.749 141.694Z" fill="#FFCF2D"/>
<path d="M103.174 124.225C104.342 125.122 104.542 126.673 103.642 127.844C102.742 129.015 101.191 129.221 100.024 128.324C98.8569 127.427 98.6565 125.876 99.5565 124.704C100.456 123.533 102.104 123.402 103.174 124.225Z" fill="#FFCF2D"/>
<path d="M116.6 106.755C117.767 107.652 117.967 109.203 117.067 110.374C116.167 111.545 114.617 111.751 113.449 110.854C112.282 109.957 112.082 108.406 112.982 107.235C113.807 106.161 115.53 105.933 116.6 106.755Z" fill="#FFCF2D"/>
<path d="M130.025 89.2842C131.192 90.1813 131.393 91.7324 130.493 92.9036C129.593 94.0747 128.042 94.2803 126.875 93.3833C125.707 92.4863 125.507 90.9351 126.407 89.7639C127.307 88.5928 128.955 88.4619 130.025 89.2842Z" fill="#FFCF2D"/>
<path d="M143.375 71.9121C144.542 72.8092 144.743 74.3603 143.843 75.5315C142.943 76.7027 141.392 76.9083 140.225 76.0112C139.058 75.1142 138.857 73.563 139.757 72.3919C140.657 71.2207 142.305 71.0899 143.375 71.9121Z" fill="#FFCF2D"/>
<path d="M156.8 54.4424C157.968 55.3395 158.168 56.8906 157.268 58.0618C156.368 59.2329 154.817 59.4385 153.65 58.5415C152.483 57.6445 152.282 56.0933 153.182 54.9221C154.082 53.751 155.73 53.6201 156.8 54.4424Z" fill="#FFCF2D"/>
<path d="M170.226 36.9727C171.393 37.8697 171.593 39.4209 170.693 40.592C169.793 41.7632 168.243 41.9688 167.075 41.0718C165.908 40.1747 165.708 38.6236 166.608 37.4524C167.433 36.3789 169.155 36.1504 170.226 36.9727Z" fill="#FFCF2D"/>
<path d="M77.4672 187.674C78.6345 188.571 78.8349 190.122 77.9349 191.293C77.0349 192.464 75.4844 192.67 74.3172 191.773C73.1499 190.876 72.9494 189.325 73.8494 188.154C74.7495 186.982 76.2999 186.777 77.4672 187.674Z" fill="#FFCF2D"/>
<path d="M90.8925 170.204C92.0598 171.101 92.2602 172.652 91.3602 173.823C90.4602 174.995 88.9097 175.2 87.7424 174.303C86.5752 173.406 86.3747 171.855 87.2747 170.684C88.0998 169.61 89.7252 169.307 90.8925 170.204Z" fill="#FFCF2D"/>
<path d="M104.243 152.832C105.41 153.729 105.61 155.28 104.71 156.451C103.81 157.623 102.26 157.828 101.093 156.931C99.9253 156.034 99.7248 154.483 100.625 153.312C101.525 152.141 103.075 151.935 104.243 152.832Z" fill="#FFCF2D"/>
<path d="M118.136 138.982C119.005 137.85 118.796 136.229 117.668 135.362C116.54 134.495 114.92 134.71 114.05 135.842C113.18 136.974 113.39 138.594 114.518 139.461C115.646 140.328 117.266 140.114 118.136 138.982Z" fill="#FFCF2D"/>
<path d="M131.093 117.893C132.26 118.79 132.461 120.341 131.561 121.512C130.661 122.683 129.11 122.889 127.943 121.992C126.776 121.095 126.575 119.544 127.475 118.372C128.3 117.299 129.926 116.996 131.093 117.893Z" fill="#FFCF2D"/>
<path d="M144.518 100.423C145.686 101.32 145.886 102.871 144.986 104.042C144.086 105.213 142.536 105.419 141.368 104.522C140.201 103.625 140.001 102.074 140.901 100.903C141.801 99.7315 143.351 99.5259 144.518 100.423Z" fill="#FFCF2D"/>
<path d="M157.869 83.0508C159.036 83.9479 159.236 85.499 158.336 86.6702C157.436 87.8413 155.886 88.0469 154.719 87.1499C153.551 86.2529 153.351 84.7017 154.251 83.5305C155.151 82.3594 156.701 82.1538 157.869 83.0508Z" fill="#FFCF2D"/>
<path d="M171.762 69.2004C172.631 68.0685 172.422 66.4481 171.294 65.5811C170.166 64.7141 168.546 64.9289 167.676 66.0608C166.806 67.1927 167.016 68.8132 168.144 69.6802C169.272 70.5471 170.892 70.3324 171.762 69.2004Z" fill="#FFCF2D"/>
<path d="M184.719 48.1114C185.886 49.0084 186.087 50.5595 185.187 51.7307C184.287 52.9019 182.736 53.1075 181.569 52.2104C180.402 51.3134 180.201 49.7622 181.101 48.5911C181.926 47.5175 183.552 47.2143 184.719 48.1114Z" fill="#FFCF2D"/>
<path d="M91.9609 198.813C93.1282 199.71 93.3286 201.261 92.4286 202.432C91.5286 203.603 89.9781 203.809 88.8108 202.912C87.6435 202.015 87.4431 200.463 88.3431 199.292C89.2431 198.121 90.7936 197.916 91.9609 198.813Z" fill="#FFCF2D"/>
<path d="M105.386 181.343C106.553 182.24 106.754 183.791 105.854 184.962C104.954 186.133 103.403 186.339 102.236 185.442C101.069 184.545 100.868 182.994 101.768 181.823C102.593 180.749 104.219 180.446 105.386 181.343Z" fill="#FFCF2D"/>
<path d="M118.736 163.971C119.904 164.868 120.104 166.419 119.204 167.59C118.304 168.761 116.753 168.967 115.586 168.07C114.419 167.173 114.218 165.622 115.118 164.45C116.018 163.279 117.569 163.074 118.736 163.971Z" fill="#FFCF2D"/>
<path d="M132.162 146.501C133.329 147.398 133.529 148.949 132.629 150.12C131.729 151.292 130.179 151.497 129.012 150.6C127.844 149.703 127.644 148.152 128.544 146.981C129.444 145.81 130.994 145.604 132.162 146.501Z" fill="#FFCF2D"/>
<path d="M145.587 129.031C146.754 129.928 146.955 131.479 146.055 132.651C145.155 133.822 143.604 134.027 142.437 133.13C141.27 132.233 141.069 130.682 141.969 129.511C142.794 128.437 144.42 128.134 145.587 129.031Z" fill="#FFCF2D"/>
<path d="M159.012 111.561C160.179 112.458 160.38 114.009 159.48 115.18C158.58 116.351 157.029 116.557 155.862 115.66C154.695 114.763 154.494 113.211 155.394 112.04C156.294 110.869 157.845 110.664 159.012 111.561Z" fill="#FFCF2D"/>
<path d="M172.362 94.1885C173.53 95.0856 173.73 96.6367 172.83 97.8079C171.93 98.979 170.379 99.1846 169.212 98.2876C168.045 97.3906 167.844 95.8394 168.744 94.6682C169.644 93.4971 171.195 93.2915 172.362 94.1885Z" fill="#FFCF2D"/>
<path d="M185.788 76.7188C186.955 77.6158 187.155 79.167 186.255 80.3381C185.355 81.5093 183.805 81.7149 182.637 80.8179C181.47 79.9208 181.27 78.3697 182.17 77.1985C183.07 76.0274 184.62 75.8218 185.788 76.7188Z" fill="#FFCF2D"/>
<path d="M199.213 59.2491C200.38 60.1461 200.581 61.6973 199.681 62.8684C198.781 64.0396 197.23 64.2452 196.063 63.3481C194.895 62.4511 194.695 60.8999 195.595 59.7288C196.42 58.6552 198.046 58.352 199.213 59.2491Z" fill="#FFCF2D"/>
<path d="M106.357 209.876C107.525 210.773 107.725 212.324 106.825 213.495C105.925 214.667 104.375 214.872 103.207 213.975C102.04 213.078 101.84 211.527 102.74 210.356C103.64 209.185 105.287 209.054 106.357 209.876Z" fill="#FFCF2D"/>
<path d="M119.783 192.406C120.95 193.303 121.15 194.854 120.25 196.026C119.35 197.197 117.8 197.402 116.633 196.505C115.465 195.608 115.265 194.057 116.165 192.886C116.99 191.812 118.713 191.584 119.783 192.406Z" fill="#FFCF2D"/>
<path d="M133.133 175.034C134.3 175.931 134.5 177.482 133.6 178.654C132.7 179.825 131.15 180.03 129.983 179.133C128.815 178.236 128.615 176.685 129.515 175.514C130.415 174.343 132.063 174.212 133.133 175.034Z" fill="#FFCF2D"/>
<path d="M146.558 157.564C147.725 158.462 147.926 160.013 147.026 161.184C146.126 162.355 144.575 162.561 143.408 161.664C142.241 160.767 142.04 159.215 142.94 158.044C143.84 156.873 145.488 156.742 146.558 157.564Z" fill="#FFCF2D"/>
<path d="M159.983 140.094C161.151 140.991 161.351 142.542 160.451 143.713C159.551 144.884 158.001 145.09 156.833 144.193C155.666 143.296 155.466 141.745 156.366 140.574C157.191 139.5 158.913 139.272 159.983 140.094Z" fill="#FFCF2D"/>
<path d="M173.409 122.624C174.576 123.521 174.776 125.072 173.876 126.243C172.976 127.415 171.426 127.62 170.259 126.723C169.091 125.826 168.891 124.275 169.791 123.104C170.691 121.933 172.339 121.802 173.409 122.624Z" fill="#FFCF2D"/>
<path d="M186.759 105.252C187.926 106.149 188.126 107.7 187.226 108.871C186.326 110.042 184.776 110.248 183.609 109.351C182.441 108.454 182.241 106.903 183.141 105.732C184.041 104.561 185.689 104.43 186.759 105.252Z" fill="#FFCF2D"/>
<path d="M200.184 87.7823C201.351 88.6793 201.552 90.2305 200.652 91.4016C199.752 92.5728 198.201 92.7784 197.034 91.8813C195.867 90.9843 195.666 89.4332 196.566 88.262C197.466 87.0908 199.114 86.96 200.184 87.7823Z" fill="#FFCF2D"/>
<path d="M213.609 70.3126C214.777 71.2096 214.977 72.7607 214.077 73.9319C213.177 75.103 211.627 75.3086 210.459 74.4116C209.292 73.5146 209.092 71.9634 209.992 70.7923C210.817 69.7187 212.539 69.4903 213.609 70.3126Z" fill="#FFCF2D"/>
</g>
<defs>
<clipPath id="clip0_2234_9590">
<rect width="181.184" height="132.739" fill="white" transform="translate(0 134.662) rotate(-52.4584)"/>
</clipPath>
</defs>
</svg>
